<?xml version="1.0" encoding="UTF-8" standalone="no"?>
<!DOCTYPE svg PUBLIC "-//W3C//DTD SVG 1.1//EN" "http://www.w3.org/Graphics/SVG/1.1/DTD/svg11.dtd">
<svg xmlns="http://www.w3.org/2000/svg" version="1.1" viewBox="0.00 0.00 698.00 218.00">
<path fill="#eb2125" d="
  M 698.00 0.00
  L 698.00 218.00
  L 0.00 218.00
  L 0.00 0.00
  L 698.00 0.00
  Z"
/>
<path fill="#fafafb" d="
  M 120.45 150.02
  C 125.14 150.91 130.46 151.86 135.21 153.04
  Q 178.83 163.85 179.30 163.96
  C 203.96 169.72 229.37 171.72 253.42 165.16
  A 1.78 1.77 51.3 0 1 254.76 165.31
  Q 255.99 165.99 255.38 167.44
  Q 254.36 169.86 251.83 172.10
  Q 231.65 190.02 205.83 193.50
  Q 174.41 197.73 143.81 185.64
  Q 131.91 180.93 117.00 173.92
  Q 109.88 170.57 95.58 165.45
  Q 78.56 159.34 62.87 158.69
  A 1.08 1.08 0.0 0 1 61.83 157.61
  L 61.83 152.70
  Q 61.83 151.71 62.82 151.66
  C 67.92 151.36 74.00 151.89 76.29 146.73
  Q 77.12 144.87 77.10 139.70
  Q 76.84 59.49 76.94 38.52
  Q 76.96 33.70 76.05 30.76
  C 73.74 23.36 67.39 23.60 60.46 23.40
  Q 59.39 23.37 59.39 22.30
  L 59.39 16.78
  Q 59.39 15.62 60.54 15.62
  L 118.30 15.62
  A 0.82 0.81 -90.0 0 1 119.11 16.44
  L 119.11 148.40
  A 1.66 1.65 5.5 0 0 120.45 150.02
  Z"
/>
<path fill="#fafafb" d="
  M 469.02 15.79
  C 479.94 15.83 493.11 20.77 493.06 33.91
  C 493.01 47.06 479.80 51.90 468.88 51.85
  C 457.95 51.81 444.78 46.87 444.83 33.73
  C 444.88 20.59 458.09 15.75 469.02 15.79
  Z"
/>
<path fill="#fafafb" d="
  M 290.43 98.04
  C 297.15 120.35 283.04 136.88 263.29 145.05
  C 251.82 149.79 239.47 151.86 226.67 152.54
  C 203.47 153.78 172.46 149.40 156.43 130.89
  C 151.53 125.24 148.56 118.96 147.81 111.33
  C 145.84 91.28 158.82 77.81 176.15 70.38
  Q 188.96 64.89 200.51 63.30
  C 221.58 60.40 244.07 61.98 264.12 70.67
  C 276.31 75.95 286.54 85.11 290.43 98.04
  Z"
/>
<path fill="#fafafb" d="
  M 417.57 69.40
  Q 415.22 69.46 417.13 70.83
  C 431.88 81.42 434.33 102.43 418.16 113.20
  Q 411.59 117.58 405.38 119.40
  Q 389.62 124.01 369.99 123.83
  Q 353.32 123.69 348.25 123.73
  C 343.54 123.76 335.64 124.63 336.22 131.33
  C 336.62 135.96 340.96 138.93 345.22 139.53
  Q 351.20 140.38 358.50 140.38
  Q 408.77 140.41 409.80 140.40
  Q 416.18 140.34 419.86 141.08
  C 423.24 141.76 426.82 147.50 427.41 150.27
  Q 428.19 153.92 427.20 157.89
  Q 424.28 169.64 409.77 169.79
  Q 381.98 170.09 351.11 170.03
  C 337.47 170.01 330.18 170.27 319.94 166.93
  C 308.01 163.03 297.62 151.31 303.25 138.33
  C 307.79 127.88 319.63 124.49 330.01 120.63
  A 0.82 0.81 1.6 0 0 330.49 120.18
  Q 330.92 119.19 329.90 119.11
  Q 329.33 119.07 329.06 118.98
  C 317.33 115.03 307.40 104.14 308.51 91.44
  C 310.69 66.59 348.95 61.84 367.51 62.17
  Q 400.10 62.74 430.50 62.55
  C 449.66 62.42 469.02 62.91 488.04 62.68
  A 0.80 0.80 0.0 0 1 488.85 63.49
  Q 488.44 101.12 488.90 136.33
  C 489.01 144.38 490.98 147.05 499.31 146.82
  Q 500.27 146.79 500.27 147.75
  L 500.27 152.89
  Q 500.27 153.83 499.33 153.83
  L 441.48 153.83
  Q 440.27 153.83 440.27 152.62
  L 440.27 148.94
  Q 440.27 147.31 441.89 147.21
  C 446.57 146.91 451.31 144.92 451.35 139.74
  Q 451.53 112.10 451.20 79.82
  C 451.12 71.98 446.04 69.56 438.61 69.43
  Q 425.62 69.19 417.57 69.40
  Z"
/>
<path fill="#fafafb" d="
  M 571.43 114.45
  A 0.42 0.42 0.0 0 0 572.07 114.29
  Q 579.81 96.91 585.28 82.26
  C 586.29 79.58 584.87 76.07 583.45 73.52
  C 580.85 68.85 576.36 68.81 571.49 68.75
  Q 570.33 68.74 570.33 67.58
  L 570.33 63.94
  Q 570.33 62.65 571.62 62.65
  L 628.27 62.65
  A 1.06 1.05 0.0 0 1 629.33 63.70
  L 629.33 67.75
  Q 629.33 68.80 628.28 68.93
  L 622.56 69.64
  A 1.56 1.55 -7.1 0 0 621.20 71.38
  Q 621.38 72.89 621.76 73.97
  Q 627.44 90.09 636.21 111.45
  Q 637.07 113.54 637.88 111.43
  Q 648.31 84.52 650.98 78.21
  Q 652.42 74.84 651.30 71.71
  C 650.42 69.24 645.23 68.79 643.00 68.76
  Q 641.29 68.75 641.29 67.04
  L 641.29 64.50
  Q 641.29 62.68 643.10 62.68
  L 672.21 62.68
  Q 673.28 62.68 673.28 63.76
  L 673.28 68.03
  Q 673.28 68.98 672.34 69.03
  C 668.92 69.23 666.15 68.96 664.24 71.49
  Q 661.85 74.65 660.30 78.30
  Q 658.33 82.92 638.17 133.19
  Q 633.55 144.69 629.80 153.22
  A 1.72 1.71 11.8 0 1 628.23 154.24
  L 617.94 154.24
  A 1.80 1.78 -10.9 0 1 616.28 153.13
  L 592.23 94.24
  Q 591.21 91.74 590.17 94.23
  L 565.64 153.36
  A 1.93 1.92 11.2 0 1 563.86 154.55
  L 552.16 154.55
  Q 551.03 154.55 550.59 153.52
  Q 528.44 102.11 517.09 74.69
  C 514.37 68.12 509.18 68.77 503.40 68.96
  Q 502.21 68.99 502.21 67.80
  L 502.21 64.13
  Q 502.21 62.64 503.71 62.64
  L 560.12 62.64
  Q 561.01 62.64 561.01 63.53
  L 561.01 67.40
  A 1.37 1.37 0.0 0 1 559.81 68.76
  L 555.43 69.30
  A 1.08 1.07 -10.1 0 0 554.51 70.61
  Q 555.19 73.54 556.02 75.75
  Q 563.65 96.16 570.71 113.55
  Q 570.90 114.02 571.43 114.45
  Z"
/>
<path fill="#eb2125" d="
  M 370.0748 119.2512
  A 25.78 19.30 88.5 0 1 350.1066 93.9852
  A 25.78 19.30 88.5 0 1 368.7252 67.7088
  A 25.78 19.30 88.5 0 1 388.6934 92.9748
  A 25.78 19.30 88.5 0 1 370.0748 119.2512
  Z"
/>
<path fill="#eb2125" d="
  M 218.04 69.10
  C 238.64 68.50 245.09 90.61 245.56 106.84
  C 246.03 123.07 240.88 145.51 220.27 146.11
  C 199.67 146.71 193.22 124.60 192.75 108.37
  C 192.28 92.14 197.43 69.70 218.04 69.10
  Z"
/>
</svg>
