<?xml version="1.0" encoding="UTF-8" standalone="no"?>
<!DOCTYPE svg PUBLIC "-//W3C//DTD SVG 1.1//EN" "http://www.w3.org/Graphics/SVG/1.1/DTD/svg11.dtd">
<svg xmlns="http://www.w3.org/2000/svg" version="1.1" viewBox="0.00 0.00 600.00 218.00">
<path fill="#d85b36" d="
  M 404.00 65.41
  A 0.53 0.53 0.0 0 1 403.47 65.94
  L 382.93 65.94
  A 0.53 0.53 0.0 0 1 382.40 65.41
  L 382.40 46.75
  A 0.53 0.53 0.0 0 1 382.93 46.22
  L 403.47 46.22
  A 0.53 0.53 0.0 0 1 404.00 46.75
  L 404.00 65.41
  Z"
/>
<path fill="#d85b36" d="
  M 52.66 151.06
  L 138.20 151.06
  A 0.66 0.65 90.0 0 1 138.85 151.72
  L 138.85 172.29
  A 0.65 0.64 0.0 0 1 138.20 172.93
  Q 78.27 172.93 42.00 172.94
  Q 40.98 172.94 38.32 172.18
  Q 36.20 171.57 34.95 170.71
  C 31.09 168.06 30.39 164.26 30.39 159.38
  Q 30.33 112.77 30.38 55.58
  Q 30.38 55.00 30.96 55.00
  L 51.00 55.00
  A 1.00 1.00 0.0 0 1 52.00 56.00
  L 52.00 150.41
  Q 52.00 151.06 52.66 151.06
  Z"
/>
<path fill="#d85b36" d="
  M 498.58 73.91
  Q 504.71 73.91 509.29 81.25
  Q 523.97 104.80 540.58 131.51
  Q 541.04 132.25 541.19 131.40
  L 554.94 55.90
  A 1.11 1.10 5.0 0 1 556.03 54.99
  L 576.01 54.99
  Q 577.10 54.99 576.91 56.06
  Q 567.62 108.31 558.05 161.51
  C 557.44 164.89 556.79 168.24 554.76 170.58
  C 549.94 176.12 541.24 175.11 537.36 168.79
  Q 522.55 144.66 498.92 105.84
  Q 498.77 105.59 498.58 105.59
  Q 498.40 105.59 498.24 105.84
  Q 474.62 144.66 459.81 168.80
  C 455.93 175.12 447.23 176.13 442.41 170.59
  C 440.38 168.25 439.73 164.90 439.12 161.52
  Q 429.54 108.32 420.25 56.07
  Q 420.06 55.00 421.15 55.00
  L 441.13 55.00
  A 1.11 1.10 -5.0 0 1 442.22 55.91
  L 455.98 131.41
  Q 456.13 132.26 456.59 131.52
  Q 473.19 104.80 487.87 81.26
  Q 492.45 73.92 498.58 73.91
  Z"
/>
<path fill="#d85b36" d="
  M 227.17 85.05
  Q 228.42 85.09 230.69 86.15
  Q 241.39 91.16 245.96 101.69
  Q 248.13 106.69 248.45 116.31
  Q 248.99 132.43 248.27 144.73
  C 247.41 159.55 238.39 169.25 224.08 172.27
  Q 220.93 172.93 216.46 172.94
  Q 205.83 172.96 202.61 172.92
  A 0.62 0.62 0.0 0 1 202.00 172.30
  L 202.00 151.99
  A 0.92 0.91 -90.0 0 1 202.91 151.07
  Q 213.10 151.07 220.48 151.00
  Q 221.10 150.99 223.46 149.69
  Q 224.91 148.88 225.55 147.36
  Q 226.94 144.10 227.00 141.75
  Q 227.13 136.37 226.97 116.13
  C 226.95 114.22 226.43 110.19 225.54 108.89
  Q 223.25 105.53 218.80 105.51
  Q 197.12 105.43 181.00 105.48
  C 175.53 105.50 171.79 107.31 171.72 113.50
  Q 171.59 127.21 171.70 142.50
  Q 171.74 147.37 174.88 149.70
  Q 176.66 151.01 180.08 151.06
  Q 181.46 151.08 192.28 151.07
  A 0.72 0.71 -0.0 0 1 193.00 151.78
  L 193.00 172.44
  Q 193.00 172.93 192.51 172.93
  C 184.07 172.93 180.10 173.38 174.93 172.28
  C 172.82 171.83 170.05 171.25 168.07 170.43
  Q 155.87 165.40 151.52 153.36
  Q 149.94 148.99 149.93 140.24
  Q 149.91 123.10 149.99 114.26
  Q 150.05 107.27 151.49 103.34
  Q 155.20 93.26 164.64 87.65
  Q 167.52 85.94 172.53 84.82
  Q 176.16 84.01 180.73 84.00
  Q 203.36 83.95 223.14 84.07
  C 224.81 84.08 225.92 85.01 227.17 85.05
  Z"
/>
<path fill="#d85b36" d="
  M 289.48 106.76
  Q 286.34 109.62 286.24 113.32
  Q 285.67 136.02 286.16 143.32
  Q 286.68 151.15 295.27 151.10
  Q 322.02 150.96 332.56 151.11
  A 0.45 0.45 0.0 0 1 333.00 151.56
  L 333.00 172.44
  Q 333.00 172.92 332.52 172.92
  Q 305.86 173.04 298.85 173.00
  Q 291.22 172.97 287.18 171.90
  Q 265.23 166.10 264.54 142.95
  Q 264.05 126.69 264.44 114.76
  Q 264.62 109.52 265.62 105.86
  Q 269.98 89.90 284.20 85.37
  Q 288.65 83.96 300.39 83.98
  Q 306.51 83.99 336.25 84.01
  Q 339.34 84.01 345.77 86.85
  Q 357.70 92.12 361.42 103.46
  Q 362.94 108.07 362.95 119.23
  Q 362.99 149.88 362.96 182.25
  Q 362.96 184.71 362.37 187.81
  Q 361.83 190.62 360.77 193.14
  Q 355.54 205.64 342.96 209.68
  Q 338.82 211.01 329.87 211.01
  Q 300.75 211.01 294.72 210.96
  Q 294.16 210.96 294.16 210.40
  L 294.16 190.00
  A 0.46 0.46 0.0 0 1 294.62 189.54
  Q 300.01 189.48 332.49 189.62
  Q 339.23 189.65 340.78 184.67
  Q 341.22 183.24 341.22 176.30
  Q 341.23 145.89 341.18 115.50
  C 341.18 113.84 341.33 111.15 340.53 109.60
  Q 338.98 106.60 336.49 105.99
  Q 335.50 105.75 332.00 105.66
  Q 317.47 105.28 295.66 105.49
  C 294.12 105.51 292.70 105.86 291.06 105.88
  Q 290.45 105.88 289.48 106.76
  Z"
/>
<path fill="#d85b36" d="
  M 404.00 172.43
  A 0.52 0.52 0.0 0 1 403.48 172.95
  L 382.90 172.95
  A 0.52 0.52 0.0 0 1 382.38 172.43
  L 382.38 84.53
  A 0.52 0.52 0.0 0 1 382.90 84.01
  L 403.48 84.01
  A 0.52 0.52 0.0 0 1 404.00 84.53
  L 404.00 172.43
  Z"
/>
</svg>
